<?xml version="1.0" standalone="no"?>
<!DOCTYPE svg PUBLIC "-//W3C//DTD SVG 20010904//EN"
 "http://www.w3.org/TR/2001/REC-SVG-20010904/DTD/svg10.dtd">
<svg version="1.0" xmlns="http://www.w3.org/2000/svg"
 width="1000.000000pt" height="866.000000pt" viewBox="0 0 1000.000000 866.000000"
 preserveAspectRatio="xMidYMid meet">
<metadata>
Created by potrace 1.12, written by Peter Selinger 2001-2015
</metadata>
<g transform="translate(0.000000,866.000000) scale(0.100000,-0.100000)"
fill="#000000" stroke="none">
<path d="M5020 8055 l0 -175 -356 -2 -355 -3 -2 -175 -2 -175 -177 -3 -178 -2
-2 -178 -3 -177 -177 -3 -178 -2 0 -355 0 -355 -535 0 -535 0 -2 -177 -3 -178
-358 -3 -357 -2 0 -180 0 -180 -180 0 -180 0 0 -180 0 -181 -175 3 c-112 2
-175 -1 -176 -7 0 -5 0 -85 1 -177 l1 -168 -185 0 -186 0 0 -535 0 -535 160
-1 c88 -1 170 -2 183 -3 22 -1 22 -2 24 -179 l2 -178 353 -2 353 -2 3 -177 2
-178 -180 0 -180 0 0 -180 0 -180 -175 -2 -176 -3 -2 -175 -2 -175 -182 -3
-183 -2 0 -355 0 -355 183 -2 182 -3 3 -177 2 -178 713 -2 712 -3 2 -160 c1
-88 3 -168 3 -177 0 -17 32 -18 535 -18 l535 0 0 180 0 180 180 0 180 0 0 180
0 180 178 -2 177 -3 0 -355 0 -355 -177 -3 -178 -2 0 -363 0 -362 1608 2 1607
3 3 360 2 360 -180 0 -180 0 0 180 0 180 -177 2 -178 3 -2 345 c-1 190 -3 350
-3 355 0 6 -63 9 -172 8 -127 -2 -174 1 -180 10 -4 6 -8 87 -8 180 l0 167
-175 0 -175 0 0 180 0 180 175 0 175 0 2 178 3 177 180 0 180 0 3 -177 2 -178
175 0 175 0 0 -180 0 -180 535 0 535 0 1 160 c1 88 3 165 4 170 1 6 3 15 4 20
1 6 67 10 176 10 l175 0 2 177 3 178 177 3 178 2 2 178 3 177 175 2 175 2 5
178 5 178 170 2 170 2 3 535 2 536 -175 0 -175 0 -2 175 -3 175 -533 3 c-349
1 -532 -1 -533 -8 0 -5 0 -85 1 -177 l1 -168 -180 0 -181 0 0 895 0 895 -180
0 -180 0 -2 176 -3 176 -175 2 -175 1 -3 177 -2 178 -178 2 -177 3 -3 177 -2
178 -178 2 c-169 3 -177 4 -178 23 0 11 -1 89 -2 173 l-2 152 -535 0 -535 0 0
-175z m1070 -355 l0 -180 180 0 180 0 0 -175 0 -175 -355 0 -355 0 -2 178 -3
177 -177 3 -178 2 0 175 0 175 355 0 355 0 0 -180z m720 -1075 l0 -175 -355 0
-355 0 0 178 0 177 355 -3 355 -2 0 -175z m-2860 -710 l0 -535 -180 0 -180 0
0 535 0 535 180 0 180 0 0 -535z m-720 -185 l0 -360 180 0 180 0 0 -355 0
-355 175 0 175 0 2 -177 3 -178 178 -3 177 -2 0 -180 0 -180 180 0 180 0 0
-180 0 -180 715 0 715 0 0 -175 0 -175 -177 -2 -178 -3 -3 -177 -2 -178 -175
0 -175 0 0 -180 0 -180 173 0 174 0 6 -262 c4 -145 7 -305 7 -355 l0 -93 -535
0 -535 0 0 180 0 180 -185 0 -185 0 0 355 0 355 540 0 540 0 0 180 0 180 -540
0 -540 0 0 175 0 175 -355 0 -355 0 0 180 0 180 -175 0 -175 0 0 360 0 360
-180 0 -180 0 0 360 0 360 -180 0 -180 0 0 355 0 355 355 0 355 0 0 -360z
m2870 185 l0 -175 175 0 175 0 0 -360 0 -360 180 0 180 0 0 535 0 535 180 0
180 0 0 -715 0 -715 180 0 180 0 0 -180 0 -180 -180 0 -180 0 0 -180 0 -180
180 0 180 0 -2 -177 -3 -178 -177 -3 -178 -2 0 -355 0 -355 -175 0 -175 0 -2
178 -3 177 -177 3 -178 2 0 355 0 355 178 2 177 3 3 178 2 177 175 0 175 0 0
180 0 180 -180 0 -180 0 0 -180 0 -180 -175 0 -175 0 0 180 0 180 -720 0 -720
0 0 -180 0 -180 715 0 715 0 0 -175 0 -175 -889 0 -889 0 -7 355 -7 355 -179
0 -179 0 2 538 3 537 178 3 177 2 0 175 0 175 720 0 720 0 0 -175z m-3222
-1973 l2 -712 -182 2 -183 3 -1 174 -2 174 -176 -2 -176 -2 0 186 0 186 175
-3 c112 -2 175 1 175 7 1 6 1 162 0 349 0 186 3 342 6 347 3 5 83 8 182 7
l177 -3 3 -713z m352 -1612 l0 -180 355 0 355 0 0 -175 0 -175 -175 0 -175 0
0 -180 0 -180 -357 2 -358 3 -3 533 -2 532 180 0 180 0 0 -180z"/>
<path d="M5380 5375 l0 -355 360 0 360 0 0 355 0 355 -360 0 -360 0 0 -355z"/>
</g>
</svg>
